<svg width="44" height="44" viewBox="0 0 44 44" fill="none" xmlns="http://www.w3.org/2000/svg">
<path fill-rule="evenodd" clip-rule="evenodd" d="M36.0427 7.72924C38.2555 7.37358 40.3327 9.06391 40.3327 11.3666V28.9666C40.3327 31.2692 38.2574 32.9596 36.0427 32.6057C32.0033 31.9512 27.9237 31.5763 23.8327 31.4837V33.9807C25.1398 34.0706 26.3627 34.2374 27.3417 34.4006C28.152 34.5344 28.9623 34.6884 29.7617 34.8846C30.726 35.1229 31.353 36.1404 31.111 37.1121C30.9928 37.5833 30.6924 37.9884 30.2758 38.2383C29.8592 38.4882 29.3604 38.5625 28.889 38.4449C28.1784 38.2758 27.4616 38.1333 26.7404 38.0177C25.1744 37.7447 23.5888 37.5994 21.9993 37.5832C20.3053 37.5832 18.5802 37.7959 17.2583 38.0159C16.5397 38.1369 15.8192 38.2707 15.1115 38.4449C14.6412 38.5592 14.1449 38.4828 13.7306 38.2325C13.3164 37.9823 13.0179 37.5784 12.9003 37.1089C12.7827 36.6395 12.8555 36.1425 13.1028 35.7265C13.3501 35.3105 13.7519 35.0092 14.2205 34.8882C15.0259 34.6934 15.8387 34.5307 16.657 34.4006C17.636 34.2356 18.857 34.0706 20.166 33.9807V31.4837C16.075 31.5763 11.9953 31.9512 7.95602 32.6057C5.74318 32.9596 3.66602 31.2674 3.66602 28.9666V11.3666C3.66602 9.06391 5.74135 7.37358 7.95602 7.72924C17.2566 9.24897 26.7421 9.24897 36.0427 7.72924ZM36.6348 11.3482H36.622C26.9377 12.9294 17.061 12.9294 7.37668 11.3482H7.35652L7.33818 11.3592L7.33268 11.3666V28.9666L7.33818 28.9739L7.35652 28.9831L7.36385 28.9849H7.37668C17.061 27.4038 26.9377 27.4038 36.622 28.9849H36.6422L36.6605 28.9739L36.666 28.9684V11.3666L36.6605 11.3592L36.6422 11.3501L36.6348 11.3482Z" fill="#292D32"/>
</svg>
