<svg width="44" height="44" viewBox="0 0 44 44" fill="none" xmlns="http://www.w3.org/2000/svg">
<path d="M24.75 13.75C24.75 13.3853 24.6051 13.0356 24.3473 12.7777C24.0894 12.5199 23.7397 12.375 23.375 12.375C23.0103 12.375 22.6606 12.5199 22.4027 12.7777C22.1449 13.0356 22 13.3853 22 13.75V22H16.5C16.1353 22 15.7856 22.1449 15.5277 22.4027C15.2699 22.6606 15.125 23.0103 15.125 23.375C15.125 23.7397 15.2699 24.0894 15.5277 24.3473C15.7856 24.6051 16.1353 24.75 16.5 24.75H23.375C23.7397 24.75 24.0894 24.6051 24.3473 24.3473C24.6051 24.0894 24.75 23.7397 24.75 23.375V13.75Z" fill="#292D32"/>
<path d="M11 4.58425V5.6375C9.44712 5.95448 8.05146 6.79825 7.0492 8.02601C6.04695 9.25377 5.49968 10.7901 5.5 12.375V31.625C5.49968 33.2099 6.04695 34.7462 7.0492 35.974C8.05146 37.2018 9.44712 38.0455 11 38.3625V39.4157C11 41.9458 13.0515 44 15.5842 44H28.4158C30.9458 44 33 41.9485 33 39.4157V38.3625C34.5529 38.0455 35.9485 37.2018 36.9508 35.974C37.953 34.7462 38.5003 33.2099 38.5 31.625V22H39.875C40.2397 22 40.5894 21.8551 40.8473 21.5973C41.1051 21.3394 41.25 20.9897 41.25 20.625V15.125C41.25 14.7603 41.1051 14.4106 40.8473 14.1527C40.5894 13.8949 40.2397 13.75 39.875 13.75H38.5V12.375C38.5003 10.7901 37.953 9.25377 36.9508 8.02601C35.9485 6.79825 34.5529 5.95448 33 5.6375V4.58425C33 2.05425 30.9485 0 28.4158 0H15.5842C13.0542 0 11 2.0515 11 4.58425ZM12.375 8.25H31.625C32.719 8.25 33.7682 8.6846 34.5418 9.45818C35.3154 10.2318 35.75 11.281 35.75 12.375V31.625C35.75 32.719 35.3154 33.7682 34.5418 34.5418C33.7682 35.3154 32.719 35.75 31.625 35.75H12.375C11.281 35.75 10.2318 35.3154 9.45818 34.5418C8.6846 33.7682 8.25 32.719 8.25 31.625V12.375C8.25 11.281 8.6846 10.2318 9.45818 9.45818C10.2318 8.6846 11.281 8.25 12.375 8.25Z" fill="#292D32"/>
</svg>
