<svg width="44" height="44" viewBox="0 0 44 44" fill="none" xmlns="http://www.w3.org/2000/svg">
<path d="M16.5 3.66669H27.5C28.9587 3.66669 30.3576 4.24615 31.3891 5.2776C32.4205 6.30905 33 7.708 33 9.16669V34.8334C33 36.292 32.4205 37.691 31.3891 38.7224C30.3576 39.7539 28.9587 40.3334 27.5 40.3334H16.5C15.0413 40.3334 13.6424 39.7539 12.6109 38.7224C11.5795 37.691 11 36.292 11 34.8334V9.16669C11 7.708 11.5795 6.30905 12.6109 5.2776C13.6424 4.24615 15.0413 3.66669 16.5 3.66669ZM16.5 7.33335C16.0138 7.33335 15.5475 7.52651 15.2036 7.87032C14.8598 8.21414 14.6667 8.68046 14.6667 9.16669V34.8334C14.6667 35.3196 14.8598 35.7859 15.2036 36.1297C15.5475 36.4735 16.0138 36.6667 16.5 36.6667H27.5C27.9862 36.6667 28.4525 36.4735 28.7964 36.1297C29.1402 35.7859 29.3333 35.3196 29.3333 34.8334V9.16669C29.3333 8.68046 29.1402 8.21414 28.7964 7.87032C28.4525 7.52651 27.9862 7.33335 27.5 7.33335H16.5ZM22 34.8334C21.5138 34.8334 21.0475 34.6402 20.7036 34.2964C20.3598 33.9526 20.1667 33.4863 20.1667 33C20.1667 32.5138 20.3598 32.0475 20.7036 31.7037C21.0475 31.3598 21.5138 31.1667 22 31.1667C22.4862 31.1667 22.9525 31.3598 23.2964 31.7037C23.6402 32.0475 23.8333 32.5138 23.8333 33C23.8333 33.4863 23.6402 33.9526 23.2964 34.2964C22.9525 34.6402 22.4862 34.8334 22 34.8334Z" fill="#292D32"/>
</svg>
