<svg width="44" height="44" viewBox="0 0 44 44" fill="none" xmlns="http://www.w3.org/2000/svg">
<path d="M39.3369 33.1519C39.1474 33.6984 38.7503 34.1484 38.2316 34.4043C37.7128 34.6602 37.1141 34.7016 36.5652 34.5193C36.0162 34.3371 35.561 33.946 35.2983 33.4307C35.0355 32.9153 34.9863 32.3172 35.1613 31.7659C35.9235 29.442 36.3083 27.011 36.3009 24.5653C36.3009 14.7621 30.2377 8.25889 22.0009 8.25889C13.7641 8.25889 7.70087 14.7621 7.70087 24.5653C7.70087 27.0733 8.09247 29.5087 8.84047 31.7659C9.01544 32.3172 8.96622 32.9153 8.70347 33.4307C8.44072 33.946 7.98558 34.3371 7.43658 34.5193C6.88759 34.7016 6.28891 34.6602 5.77016 34.4043C5.2514 34.1484 4.85432 33.6984 4.66487 33.1519C3.75409 30.381 3.29358 27.482 3.30087 24.5653C3.30087 12.3993 11.2627 3.85889 22.0009 3.85889C32.7391 3.85889 40.7009 12.3993 40.7009 24.5653C40.7009 27.5441 40.2345 30.4459 39.3369 33.1519Z" fill="#292D32"/>
<path d="M13.1507 37.4749C11.4072 37.4414 9.74776 36.7191 8.53501 35.466C7.32226 34.2128 6.65476 32.5306 6.67834 30.7869V30.7385C6.69065 29.8753 6.87333 29.023 7.2159 28.2305C7.55846 27.4381 8.05417 26.7211 8.67457 26.1207C9.29496 25.5204 10.0278 25.0485 10.8311 24.7321C11.6343 24.4157 12.4922 24.2611 13.3553 24.2771C13.9361 24.2887 14.4888 24.5295 14.8927 24.947C15.2966 25.3645 15.519 25.9248 15.5113 26.5057L15.3925 35.3057C15.3885 35.5956 15.3273 35.8818 15.2123 36.1479C15.0973 36.414 14.9309 36.6548 14.7226 36.8563C14.5142 37.0579 14.2681 37.2163 13.9984 37.3225C13.7286 37.4286 13.4406 37.4804 13.1507 37.4749ZM30.9971 24.2001C32.7407 24.2337 34.4001 24.9559 35.6129 26.2091C36.8256 27.4622 37.4931 29.1444 37.4695 30.8881V30.9365C37.4452 32.6738 36.7322 34.3303 35.4873 35.5423C34.2424 36.7542 32.5672 37.4224 30.8299 37.4001H30.7947C30.2132 37.3891 29.6596 37.1482 29.2552 36.7302C28.8507 36.3121 28.6283 35.7509 28.6365 35.1693L28.7553 26.3693C28.7593 26.0795 28.8206 25.7932 28.9356 25.5271C29.0505 25.261 29.217 25.0203 29.4253 24.8187C29.6336 24.6171 29.8797 24.4587 30.1495 24.3525C30.4192 24.2464 30.7073 24.1946 30.9971 24.2001Z" fill="#292D32"/>
</svg>
