<svg width="34" height="34" viewBox="0 0 34 34" fill="none" xmlns="http://www.w3.org/2000/svg">
<path d="M31.6667 4.16667V2.33333C31.6667 1.325 30.8417 0.5 29.8333 0.5H26.1667C25.1583 0.5 24.3333 1.325 24.3333 2.33333V4.16667H22.5V11.5C22.5 12.5083 23.325 13.3333 24.3333 13.3333H26.1667V26.1667C26.1667 28.1833 24.5167 29.8333 22.5 29.8333C20.4833 29.8333 18.8333 28.1833 18.8333 26.1667V7.83333C18.8333 3.78167 15.5517 0.5 11.5 0.5C7.44833 0.5 4.16667 3.78167 4.16667 7.83333V20.6667H2.33333C1.325 20.6667 0.5 21.4917 0.5 22.5V29.8333H2.33333V31.6667C2.33333 32.675 3.15833 33.5 4.16667 33.5H7.83333C8.84167 33.5 9.66667 32.675 9.66667 31.6667V29.8333H11.5V22.5C11.5 21.4917 10.675 20.6667 9.66667 20.6667H7.83333V7.83333C7.83333 5.81667 9.48333 4.16667 11.5 4.16667C13.5167 4.16667 15.1667 5.81667 15.1667 7.83333V26.1667C15.1667 30.2183 18.4483 33.5 22.5 33.5C26.5517 33.5 29.8333 30.2183 29.8333 26.1667V13.3333H31.6667C32.675 13.3333 33.5 12.5083 33.5 11.5V4.16667H31.6667Z" fill="#292D32"/>
</svg>
