<svg width="38" height="38" viewBox="0 0 38 38" fill="none" xmlns="http://www.w3.org/2000/svg">
<path d="M18.9993 3.16675C10.2593 3.16675 3.16602 10.2601 3.16602 19.0001C3.16602 27.7401 10.2593 34.8334 18.9993 34.8334C27.7393 34.8334 34.8327 27.7401 34.8327 19.0001C34.8327 10.2601 27.7393 3.16675 18.9993 3.16675ZM18.3818 18.7467C18.3818 23.6234 17.321 24.7159 14.4868 26.3942C14.2968 26.5051 14.091 26.5526 13.8852 26.5526C13.4735 26.5526 13.0777 26.3467 12.856 25.9667C12.5235 25.3967 12.7135 24.6684 13.2677 24.3359C15.1835 23.1959 15.8485 22.7842 15.9752 19.9184H12.9668C11.241 19.9184 9.89518 18.5726 9.89518 16.8467V14.5034C9.89518 12.7776 11.241 11.4317 12.9668 11.4317H15.326C17.0202 11.4317 18.3977 12.8092 18.3977 14.5034V18.7467H18.3818ZM28.1035 18.7467C28.1035 23.6234 27.0427 24.7159 24.2085 26.3942C24.0185 26.5051 23.8127 26.5526 23.6068 26.5526C23.1952 26.5526 22.7993 26.3467 22.5777 25.9667C22.2452 25.3967 22.4352 24.6684 22.9893 24.3359C24.9052 23.1959 25.5702 22.7842 25.6968 19.9184H22.6727C20.9468 19.9184 19.601 18.5726 19.601 16.8467V14.5034C19.601 12.7776 20.9468 11.4317 22.6727 11.4317H25.0318C26.726 11.4317 28.1035 12.8092 28.1035 14.5034V18.7467Z" fill="#8B8B8C"/>
</svg>
